<?xml version="1.0" encoding="UTF-8" standalone="no"?>
<!-- Created with Inkscape (http://www.inkscape.org/) -->

<svg
   width="115.85786mm"
   height="113.53886mm"
   viewBox="0 0 115.85786 113.53886"
   version="1.1"
   id="svg1"
   xml:space="preserve"
   inkscape:version="1.4.2 (f4327f4, 2025-05-13)"
   sodipodi:docname="PicDia-Full-Logo-SVG-aparted-justPD-letters.svg"
   xmlns:inkscape="http://www.inkscape.org/namespaces/inkscape"
   xmlns:sodipodi="http://sodipodi.sourceforge.net/DTD/sodipodi-0.dtd"
   xmlns:xlink="http://www.w3.org/1999/xlink"
   xmlns="http://www.w3.org/2000/svg"
   xmlns:svg="http://www.w3.org/2000/svg"><sodipodi:namedview
     id="namedview1"
     pagecolor="#ffffff"
     bordercolor="#000000"
     borderopacity="0.25"
     inkscape:showpageshadow="2"
     inkscape:pageopacity="0.0"
     inkscape:pagecheckerboard="0"
     inkscape:deskcolor="#d1d1d1"
     inkscape:document-units="mm"
     showgrid="false"
     inkscape:zoom="0.7349537"
     inkscape:cx="216.34016"
     inkscape:cy="328.59213"
     inkscape:window-width="1536"
     inkscape:window-height="811"
     inkscape:window-x="1912"
     inkscape:window-y="-8"
     inkscape:window-maximized="1"
     inkscape:current-layer="layer1"
     inkscape:clip-to-page="false" /><defs
     id="defs1"><linearGradient
       id="linearGradient1"
       inkscape:collect="always"><stop
         style="stop-color:#f43b0a;stop-opacity:1;"
         offset="0"
         id="stop1" /><stop
         style="stop-color:#d68948;stop-opacity:0.96592844;"
         offset="1"
         id="stop2" /></linearGradient><linearGradient
       inkscape:collect="always"
       xlink:href="#linearGradient1"
       id="linearGradient2"
       x1="48.172112"
       y1="174.10742"
       x2="164.02811"
       y2="61.067413"
       gradientUnits="userSpaceOnUse" /></defs><g
     inkscape:label="Layer 1"
     inkscape:groupmode="layer"
     id="layer1"
     transform="translate(-47.450247,-61.177982)"><path
       style="display:inline;fill:url(#linearGradient2)"
       d="m 66.869792,174.63186 c -4.372497,-0.62123 -9.005852,-2.91238 -12.377801,-6.1207 -2.876556,-2.73697 -4.881809,-6.05932 -6.206764,-10.28353 l -0.730018,-4.44408 -0.07327,-34.76686 c -0.0847,-40.188656 -0.108419,-39.307418 1.405485,-43.340123 2.104312,-5.60542 7.062293,-10.669889 12.597193,-12.867755 4.381041,-1.739678 1.42106,-1.629435 43.749753,-1.629435 36.37667,0 38.47426,0.02534 40.48125,0.489081 7.13423,1.648448 13.27269,6.927003 16.01252,13.769426 1.58779,3.965315 1.57907,3.732918 1.57997,42.097736 5.5e-4,23.66865 -0.0925,35.6855 -0.28857,37.28458 -0.54231,4.42192 -2.04618,7.93102 -4.96863,11.59369 -2.99124,3.74887 -6.80859,6.19762 -12.19909,7.82547 -1.33025,0.40171 -4.84735,0.44348 -39.8237,0.47295 -21.100513,0.0178 -38.721762,-0.0184 -39.158324,-0.0805 z"
       id="path51"
       sodipodi:nodetypes="csscssssssscssscc" /><path
       style="display:inline;fill:#ffffff"
       d="M 72.29375,123.22417 V 95.7075 l 7.60677,0.0046 c 5.58887,0.0034 8.082672,0.105438 9.40075,0.384739 6.155099,1.304267 9.464122,6.557361 8.646482,13.726351 -0.422522,3.70462 -2.409043,6.91749 -5.224588,8.44991 -2.409859,1.31161 -3.83323,1.51149 -10.763242,1.51149 h -6.362234 l -0.03878,4.7855 -0.03878,4.7855 7.977956,-0.11044 c 7.145575,-0.0989 8.198798,-0.17032 10.094622,-0.68426 5.76952,-1.56408 10.330094,-5.14912 12.679074,-9.96692 1.30646,-2.67959 1.73222,-4.1253 2.21003,-7.50442 0.73971,-5.23125 -0.22444,-10.92732 -2.51255,-14.843883 -2.09647,-3.588526 -5.94603,-6.874891 -9.863013,-8.420033 -3.807452,-1.501937 -3.481355,-1.475549 -19.513019,-1.579005 l -14.882812,-0.09604 v 32.295131 32.29512 h 5.291666 5.291667 z"
       id="path52" /><path
       style="display:inline;fill:#ffffff"
       d="m 124.53815,150.34056 c 4.80599,-0.72437 8.85146,-2.19098 12.20685,-4.42537 6.78811,-4.52028 10.88089,-11.27718 12.46039,-20.57121 0.66237,-3.89748 0.59472,-10.73645 -0.14335,-14.49249 -2.54144,-12.933285 -9.99888,-21.047228 -21.99954,-23.936228 -2.0267,-0.4879 -3.32104,-0.55281 -13.09688,-0.656792 -5.96635,-0.06346 -11.43471,-0.07675 -12.1519,-0.02953 l -1.30398,0.08585 1.48391,0.982598 c 2.10434,1.39343 5.06508,4.476367 6.30775,6.568092 l 1.05984,1.783974 6.66782,0.124618 c 5.64517,0.105505 6.97693,0.208371 8.68335,0.670708 7.8785,2.134606 12.69219,7.96037 14.00228,16.94626 0.47147,3.23375 0.19282,10.13153 -0.52547,13.00813 -1.68215,6.73654 -6.10698,11.76146 -12.01823,13.64811 -2.58581,0.8253 -7.05809,1.17628 -12.99912,1.02018 -2.18281,-0.0574 -4.18702,-0.10697 -4.45381,-0.11025 -0.4604,-0.006 -0.48269,-0.40601 -0.43862,-7.87732 0.0255,-4.32924 0.0317,-8.58572 0.0137,-9.45885 l -0.0328,-1.5875 -0.57723,0.79375 c -2.04185,2.80773 -6.56964,6.54038 -8.844246,7.29107 l -0.880512,0.29059 v 9.74743 c 0,5.36108 -0.07227,9.93575 -0.160599,10.16594 -0.145012,0.37789 1.016993,0.41836 11.972397,0.41695 9.43553,-0.001 12.71882,-0.0899 14.76802,-0.39871 z"
       id="path53" /></g></svg>
